<?xml version="1.0" encoding="UTF-8" standalone="no"?>
<svg
   xmlns:dc="http://purl.org/dc/elements/1.1/"
   xmlns:cc="http://creativecommons.org/ns#"
   xmlns:rdf="http://www.w3.org/1999/02/22-rdf-syntax-ns#"
   xmlns:svg="http://www.w3.org/2000/svg"
   xmlns="http://www.w3.org/2000/svg"
   xmlns:sodipodi="http://sodipodi.sourceforge.net/DTD/sodipodi-0.dtd"
   xmlns:inkscape="http://www.inkscape.org/namespaces/inkscape"
   viewBox="0 0 348 348"
   fill="none"
   stroke-linecap="square"
   stroke-miterlimit="10"
   version="1.1"
   id="svg70"
   sodipodi:docname="ReversedEdgework1.svg"
   inkscape:version="0.92.4 (5da689c313, 2019-01-14)">
  <metadata
     id="metadata76">
    <rdf:RDF>
      <cc:Work
         rdf:about="">
        <dc:format>image/svg+xml</dc:format>
        <dc:type
           rdf:resource="http://purl.org/dc/dcmitype/StillImage" />
      </cc:Work>
    </rdf:RDF>
  </metadata>
  <defs
     id="defs74" />
  <sodipodi:namedview
     pagecolor="#ffffff"
     bordercolor="#666666"
     borderopacity="1"
     objecttolerance="10"
     gridtolerance="10"
     guidetolerance="10"
     inkscape:pageopacity="0"
     inkscape:pageshadow="2"
     inkscape:window-width="1920"
     inkscape:window-height="1017"
     id="namedview72"
     showgrid="false"
     inkscape:zoom="0.95906437"
     inkscape:cx="-205.53755"
     inkscape:cy="121.3596"
     inkscape:window-x="-8"
     inkscape:window-y="-8"
     inkscape:window-maximized="1"
     inkscape:current-layer="svg70" />
  <path
     d="M0 0h348v348H0z"
     fill="none"
     id="path2" />
  <path
     d="M-6 0h354.016v347.969H-6z"
     fill="#fff"
     id="path4" />
  <path
     d="M5.079 5.776h336.913v337.67H5.08z"
     fill="none"
     id="path6" />
  <path
     d="M5.079 5.776h336.913v337.67H5.08z"
     stroke="#000"
     stroke-width="2"
     stroke-linecap="butt"
     stroke-linejoin="round"
     id="path8" />
  <path
     d="M133.843 15.667h74.33v56.882h-74.33z"
     fill="#000"
     id="path10" />
  <path
     d="M154.54 44.09q0-4.063.827-6.531.844-2.485 2.485-3.829 1.656-1.343 4.156-1.343 1.844 0 3.234.75 1.39.734 2.297 2.14.906 1.39 1.422 3.407.516 2 .516 5.406 0 4.031-.829 6.515-.828 2.47-2.484 3.829-1.64 1.343-4.156 1.343-3.313 0-5.203-2.375-2.266-2.86-2.266-9.312zm2.89 0q0 5.64 1.312 7.515 1.328 1.86 3.266 1.86 1.937 0 3.25-1.875 1.328-1.875 1.328-7.5 0-5.656-1.328-7.516-1.313-1.86-3.281-1.86-1.938 0-3.094 1.641-1.453 2.094-1.453 7.735zm14.906 0q0-4.063.828-6.531.844-2.485 2.484-3.829 1.657-1.343 4.157-1.343 1.843 0 3.234.75 1.39.734 2.297 2.14.906 1.39 1.422 3.407.515 2 .515 5.406 0 4.031-.828 6.515-.828 2.47-2.484 3.829-1.64 1.343-4.156 1.343-3.313 0-5.203-2.375-2.266-2.86-2.266-9.312zm2.89 0q0 5.64 1.313 7.515 1.328 1.86 3.266 1.86 1.937 0 3.25-1.875 1.328-1.875 1.328-7.5 0-5.656-1.328-7.516-1.313-1.86-3.282-1.86-1.937 0-3.093 1.641-1.453 2.094-1.453 7.735zM15.262 17.706h109.89v54.835H15.262z"
     fill="#fff"
     id="path12" />
  <path
     d="M15.262 17.706h109.89v54.835H15.262z"
     stroke="#000"
     stroke-width="2"
     stroke-linecap="butt"
     stroke-linejoin="round"
     id="path14" />
  <path
     d="M15.262 72.654l39.686-54.08"
     fill="none"
     id="path16" />
  <path
     d="M15.262 72.654l39.686-54.08"
     stroke="#000"
     stroke-width="2"
     stroke-linecap="butt"
     stroke-linejoin="round"
     id="path18" />
  <path
     d="M37.566 72.654l39.686-54.08"
     fill="none"
     id="path20" />
  <path
     d="M37.566 72.654l39.686-54.08"
     stroke="#000"
     stroke-width="2"
     stroke-linecap="butt"
     stroke-linejoin="round"
     id="path22" />
  <path
     d="M59.87 72.654l39.686-54.08"
     fill="none"
     id="path24" />
  <path
     d="M59.87 72.654l39.686-54.08"
     stroke="#000"
     stroke-width="2"
     stroke-linecap="butt"
     stroke-linejoin="round"
     id="path26" />
  <path
     d="M82.175 72.654l39.685-54.08"
     fill="none"
     id="path28" />
  <path
     d="M82.175 72.654l39.685-54.08"
     stroke="#000"
     stroke-width="2"
     stroke-linecap="butt"
     stroke-linejoin="round"
     id="path30" />
  <path
     d="M216.864 16.634h109.89v54.835h-109.89z"
     fill="#fff"
     id="path32" />
  <path
     d="M216.864 16.634h109.89v54.835h-109.89z"
     stroke="#000"
     stroke-width="2"
     stroke-linecap="butt"
     stroke-linejoin="round"
     id="path34" />
  <path
     d="M216.864 71.581l39.685-54.078"
     fill="none"
     id="path36" />
  <path
     d="M216.864 71.581l39.685-54.078"
     stroke="#000"
     stroke-width="2"
     stroke-linecap="butt"
     stroke-linejoin="round"
     id="path38" />
  <path
     d="M239.168 71.581l39.685-54.078"
     fill="none"
     id="path40" />
  <path
     d="M239.168 71.581l39.685-54.078"
     stroke="#000"
     stroke-width="2"
     stroke-linecap="butt"
     stroke-linejoin="round"
     id="path42" />
  <path
     d="M261.472 71.581l39.685-54.078"
     fill="none"
     id="path44" />
  <path
     d="M261.472 71.581l39.685-54.078"
     stroke="#000"
     stroke-width="2"
     stroke-linecap="butt"
     stroke-linejoin="round"
     id="path46" />
  <path
     d="M283.776 71.581l39.685-54.078"
     fill="none"
     id="path48" />
  <path
     d="M283.776 71.581l39.685-54.078"
     stroke="#000"
     stroke-width="2"
     stroke-linecap="butt"
     stroke-linejoin="round"
     id="path50" />
  <path
     d="M113.772 267.517h49.26v45.48h-49.26zM182.795 267.517h49.26v45.48h-49.26z"
     fill="none"
     id="path52" />
  <path
     d="M260.081 270.74h36.725v25.638H260.08zM265.465 305.507a4.268 4.268 0 1 1 8.535 0 4.268 4.268 0 0 1-8.535 0zM282.808 305.507a4.268 4.268 0 1 1 8.535 0 4.268 4.268 0 0 1-8.535 0z"
     fill="#fff"
     id="path54" />
  <rect
     style="fill:none;fill-opacity:1;stroke:#000000;stroke-width:1.98493731;stroke-miterlimit:4;stroke-dasharray:none"
     id="rect828"
     width="275.88031"
     height="109.29698"
     x="39.008999"
     y="101.6566" />
  <rect
     style="fill:none;fill-opacity:1;stroke:#000000;stroke-width:1.80738747;stroke-miterlimit:4;stroke-dasharray:none"
     id="rect830"
     width="125.12195"
     height="37.536583"
     x="38.578346"
     y="231.95439" />
  <rect
     style="fill:none;fill-opacity:1;stroke:#000000;stroke-width:1.80738747;stroke-miterlimit:4;stroke-dasharray:none"
     id="rect830-0"
     width="125.12195"
     height="37.536583"
     x="189.76736"
     y="231.9539" />
  <rect
     style="fill:none;fill-opacity:1;stroke:#000000;stroke-width:1.80738747;stroke-miterlimit:4;stroke-dasharray:none"
     id="rect830-2"
     width="125.12195"
     height="37.536583"
     x="38.578457"
     y="284.08878" />
  <rect
     style="fill:none;fill-opacity:1;stroke:#000000;stroke-width:1.80738747;stroke-miterlimit:4;stroke-dasharray:none"
     id="rect830-0-2"
     width="125.12195"
     height="37.536583"
     x="189.76749"
     y="284.08829" />
</svg>
